# xmcd
#
# Track frame offsets:
#	150
#	12795
#	28130
#	40451
#	55945
#	70364
#	87417
#	103636
#	117015
#	133613
#	147682
#	163803
#	179065
#	193187
#	208457
#	224259
#
# Disc length: 3215 seconds
#
# Revision: 0
# Processed by: cddbd v1.5.2PL0 Copyright (c) Steve Scherf et al.
# Submitted via: EZCDAudioConverter 9.0.7.1
#
DISCID=020c8d10
DTITLE=Various Artist - Sonically Speaking, Volume 41: Juni 2008
DYEAR=2008
DGENRE=
TTITLE0=Salaisuus
TTITLE1=Niinkuin meren hiekkaa
TTITLE2=Sisilian Yö
TTITLE3=Tärkeintä maan päällä
TTITLE4=Vierivät kivet
TTITLE5=Kun yö ohi on
TTITLE6=Käy vierellein
TTITLE7=Sulle sydämein menetin
TTITLE8=Betsyn baari
TTITLE9=Revontulien alla
TTITLE10=Lupaus
TTITLE11=Ethän sano
TTITLE12=Ei se riitä
TTITLE13=Elämän virtaa
TTITLE14=Kotiinpäin
TTITLE15=Sinisen talon mailla
EXTD=
EXTT0=
EXTT1=
EXTT2=
EXTT3=
EXTT4=
EXTT5=
EXTT6=
EXTT7=
EXTT8=
EXTT9=
EXTT10=
EXTT11=
EXTT12=
EXTT13=
EXTT14=
EXTT15=
PLAYORDER=
